<mxfile host="app.diagrams.net" agent="Mozilla/5.0 (Windows NT 10.0; Win64; x64; rv:132.0) Gecko/20100101 Firefox/132.0" version="24.7.17" pages="2">
  <diagram name="Page-1" id="yhtqUFXZqxTHU2mbXazA">
    <mxGraphModel dx="1077" dy="1716" grid="1" gridSize="10" guides="1" tooltips="1" connect="1" arrows="1" fold="1" page="1" pageScale="1" pageWidth="850" pageHeight="1100" math="0" shadow="0">
      <root>
        <mxCell id="0" />
        <mxCell id="1" parent="0" />
        <mxCell id="VE71ZRhi2tI3rBxWaXgb-1" value="" style="endArrow=none;html=1;rounded=0;" edge="1" parent="1">
          <mxGeometry width="50" height="50" relative="1" as="geometry">
            <mxPoint x="20" y="160" as="sourcePoint" />
            <mxPoint x="120" y="160" as="targetPoint" />
          </mxGeometry>
        </mxCell>
        <mxCell id="VE71ZRhi2tI3rBxWaXgb-2" value="" style="endArrow=none;html=1;rounded=0;" edge="1" parent="1">
          <mxGeometry width="50" height="50" relative="1" as="geometry">
            <mxPoint x="120" y="160" as="sourcePoint" />
            <mxPoint x="120" y="100" as="targetPoint" />
          </mxGeometry>
        </mxCell>
        <mxCell id="VE71ZRhi2tI3rBxWaXgb-3" value="" style="endArrow=none;html=1;rounded=0;" edge="1" parent="1">
          <mxGeometry width="50" height="50" relative="1" as="geometry">
            <mxPoint x="120" y="220" as="sourcePoint" />
            <mxPoint x="120" y="160" as="targetPoint" />
          </mxGeometry>
        </mxCell>
        <mxCell id="VE71ZRhi2tI3rBxWaXgb-4" value="" style="endArrow=none;html=1;rounded=0;" edge="1" parent="1">
          <mxGeometry width="50" height="50" relative="1" as="geometry">
            <mxPoint x="120" y="100" as="sourcePoint" />
            <mxPoint x="160" y="100" as="targetPoint" />
          </mxGeometry>
        </mxCell>
        <mxCell id="VE71ZRhi2tI3rBxWaXgb-5" value="" style="endArrow=none;html=1;rounded=0;" edge="1" parent="1">
          <mxGeometry width="50" height="50" relative="1" as="geometry">
            <mxPoint x="120" y="220" as="sourcePoint" />
            <mxPoint x="160" y="220" as="targetPoint" />
          </mxGeometry>
        </mxCell>
        <mxCell id="VE71ZRhi2tI3rBxWaXgb-6" value="" style="triangle;whiteSpace=wrap;html=1;fillColor=#000000;fillStyle=solid;" vertex="1" parent="1">
          <mxGeometry x="150" y="80" width="30" height="40" as="geometry" />
        </mxCell>
        <mxCell id="VE71ZRhi2tI3rBxWaXgb-7" value="" style="triangle;whiteSpace=wrap;html=1;fillColor=#000000;fillStyle=solid;" vertex="1" parent="1">
          <mxGeometry x="150" y="200" width="30" height="40" as="geometry" />
        </mxCell>
        <mxCell id="VE71ZRhi2tI3rBxWaXgb-8" value="" style="endArrow=classic;html=1;rounded=0;" edge="1" parent="1">
          <mxGeometry width="50" height="50" relative="1" as="geometry">
            <mxPoint x="180" y="99.8" as="sourcePoint" />
            <mxPoint x="220" y="99.8" as="targetPoint" />
          </mxGeometry>
        </mxCell>
        <mxCell id="VE71ZRhi2tI3rBxWaXgb-9" value="" style="endArrow=classic;html=1;rounded=0;" edge="1" parent="1">
          <mxGeometry width="50" height="50" relative="1" as="geometry">
            <mxPoint x="180" y="219.8" as="sourcePoint" />
            <mxPoint x="220" y="219.8" as="targetPoint" />
          </mxGeometry>
        </mxCell>
        <mxCell id="VE71ZRhi2tI3rBxWaXgb-11" value="" style="endArrow=none;html=1;rounded=0;" edge="1" parent="1">
          <mxGeometry width="50" height="50" relative="1" as="geometry">
            <mxPoint x="220" y="80" as="sourcePoint" />
            <mxPoint x="250" y="80" as="targetPoint" />
          </mxGeometry>
        </mxCell>
        <mxCell id="VE71ZRhi2tI3rBxWaXgb-12" value="" style="endArrow=none;html=1;rounded=0;" edge="1" parent="1">
          <mxGeometry width="50" height="50" relative="1" as="geometry">
            <mxPoint x="220" y="120" as="sourcePoint" />
            <mxPoint x="250" y="120" as="targetPoint" />
          </mxGeometry>
        </mxCell>
        <mxCell id="VE71ZRhi2tI3rBxWaXgb-13" value="" style="endArrow=none;html=1;rounded=0;" edge="1" parent="1">
          <mxGeometry width="50" height="50" relative="1" as="geometry">
            <mxPoint x="250" y="80" as="sourcePoint" />
            <mxPoint x="250" y="120" as="targetPoint" />
          </mxGeometry>
        </mxCell>
        <mxCell id="VE71ZRhi2tI3rBxWaXgb-14" value="" style="endArrow=none;html=1;rounded=0;" edge="1" parent="1">
          <mxGeometry width="50" height="50" relative="1" as="geometry">
            <mxPoint x="244" y="85" as="sourcePoint" />
            <mxPoint x="244" y="115" as="targetPoint" />
          </mxGeometry>
        </mxCell>
        <mxCell id="VE71ZRhi2tI3rBxWaXgb-15" value="" style="endArrow=none;html=1;rounded=0;" edge="1" parent="1">
          <mxGeometry width="50" height="50" relative="1" as="geometry">
            <mxPoint x="238" y="85" as="sourcePoint" />
            <mxPoint x="238" y="115" as="targetPoint" />
          </mxGeometry>
        </mxCell>
        <mxCell id="VE71ZRhi2tI3rBxWaXgb-16" value="" style="endArrow=none;html=1;rounded=0;" edge="1" parent="1">
          <mxGeometry width="50" height="50" relative="1" as="geometry">
            <mxPoint x="226" y="85" as="sourcePoint" />
            <mxPoint x="226" y="115" as="targetPoint" />
          </mxGeometry>
        </mxCell>
        <mxCell id="VE71ZRhi2tI3rBxWaXgb-17" value="" style="endArrow=none;html=1;rounded=0;" edge="1" parent="1">
          <mxGeometry width="50" height="50" relative="1" as="geometry">
            <mxPoint x="232" y="85" as="sourcePoint" />
            <mxPoint x="232" y="115" as="targetPoint" />
          </mxGeometry>
        </mxCell>
        <mxCell id="VE71ZRhi2tI3rBxWaXgb-18" value="" style="endArrow=none;html=1;rounded=0;" edge="1" parent="1">
          <mxGeometry width="50" height="50" relative="1" as="geometry">
            <mxPoint x="220" y="200" as="sourcePoint" />
            <mxPoint x="250" y="200" as="targetPoint" />
          </mxGeometry>
        </mxCell>
        <mxCell id="VE71ZRhi2tI3rBxWaXgb-19" value="" style="endArrow=none;html=1;rounded=0;" edge="1" parent="1">
          <mxGeometry width="50" height="50" relative="1" as="geometry">
            <mxPoint x="220" y="240" as="sourcePoint" />
            <mxPoint x="250" y="240" as="targetPoint" />
          </mxGeometry>
        </mxCell>
        <mxCell id="VE71ZRhi2tI3rBxWaXgb-20" value="" style="endArrow=none;html=1;rounded=0;" edge="1" parent="1">
          <mxGeometry width="50" height="50" relative="1" as="geometry">
            <mxPoint x="250" y="200" as="sourcePoint" />
            <mxPoint x="250" y="240" as="targetPoint" />
          </mxGeometry>
        </mxCell>
        <mxCell id="VE71ZRhi2tI3rBxWaXgb-21" value="" style="endArrow=none;html=1;rounded=0;" edge="1" parent="1">
          <mxGeometry width="50" height="50" relative="1" as="geometry">
            <mxPoint x="244" y="205" as="sourcePoint" />
            <mxPoint x="244" y="235" as="targetPoint" />
          </mxGeometry>
        </mxCell>
        <mxCell id="VE71ZRhi2tI3rBxWaXgb-22" value="" style="endArrow=none;html=1;rounded=0;" edge="1" parent="1">
          <mxGeometry width="50" height="50" relative="1" as="geometry">
            <mxPoint x="238" y="205" as="sourcePoint" />
            <mxPoint x="238" y="235" as="targetPoint" />
          </mxGeometry>
        </mxCell>
        <mxCell id="VE71ZRhi2tI3rBxWaXgb-23" value="" style="endArrow=none;html=1;rounded=0;" edge="1" parent="1">
          <mxGeometry width="50" height="50" relative="1" as="geometry">
            <mxPoint x="226" y="205" as="sourcePoint" />
            <mxPoint x="226" y="235" as="targetPoint" />
          </mxGeometry>
        </mxCell>
        <mxCell id="VE71ZRhi2tI3rBxWaXgb-24" value="" style="endArrow=none;html=1;rounded=0;" edge="1" parent="1">
          <mxGeometry width="50" height="50" relative="1" as="geometry">
            <mxPoint x="232" y="205" as="sourcePoint" />
            <mxPoint x="232" y="235" as="targetPoint" />
          </mxGeometry>
        </mxCell>
        <mxCell id="VE71ZRhi2tI3rBxWaXgb-25" value="" style="endArrow=none;dashed=1;html=1;rounded=0;" edge="1" parent="1">
          <mxGeometry width="50" height="50" relative="1" as="geometry">
            <mxPoint x="235" y="79" as="sourcePoint" />
            <mxPoint x="235" y="39" as="targetPoint" />
          </mxGeometry>
        </mxCell>
        <mxCell id="VE71ZRhi2tI3rBxWaXgb-26" value="" style="endArrow=none;dashed=1;html=1;rounded=0;" edge="1" parent="1">
          <mxGeometry width="50" height="50" relative="1" as="geometry">
            <mxPoint x="150" y="40" as="sourcePoint" />
            <mxPoint x="230" y="40" as="targetPoint" />
          </mxGeometry>
        </mxCell>
        <mxCell id="VE71ZRhi2tI3rBxWaXgb-27" value="" style="endArrow=none;dashed=1;html=1;rounded=0;startArrow=open;startFill=0;" edge="1" parent="1">
          <mxGeometry width="50" height="50" relative="1" as="geometry">
            <mxPoint x="150" y="80" as="sourcePoint" />
            <mxPoint x="150" y="40" as="targetPoint" />
          </mxGeometry>
        </mxCell>
        <mxCell id="VE71ZRhi2tI3rBxWaXgb-28" value="L1 = 3 OR L2 &amp;lt; L1" style="text;html=1;align=center;verticalAlign=middle;whiteSpace=wrap;rounded=0;" vertex="1" parent="1">
          <mxGeometry x="150" y="10" width="66.67" height="20" as="geometry" />
        </mxCell>
        <mxCell id="VE71ZRhi2tI3rBxWaXgb-29" value="L1 max = 3" style="text;html=1;align=center;verticalAlign=middle;whiteSpace=wrap;rounded=0;" vertex="1" parent="1">
          <mxGeometry x="149.99999999999997" y="50" width="70" height="20" as="geometry" />
        </mxCell>
        <mxCell id="VE71ZRhi2tI3rBxWaXgb-30" value="L2 max = 3" style="text;html=1;align=center;verticalAlign=middle;whiteSpace=wrap;rounded=0;" vertex="1" parent="1">
          <mxGeometry x="150" y="250" width="70" height="20" as="geometry" />
        </mxCell>
        <mxCell id="VE71ZRhi2tI3rBxWaXgb-31" value="" style="endArrow=none;dashed=1;html=1;rounded=0;" edge="1" parent="1">
          <mxGeometry width="50" height="50" relative="1" as="geometry">
            <mxPoint x="234.88" y="280" as="sourcePoint" />
            <mxPoint x="234.88" y="240" as="targetPoint" />
          </mxGeometry>
        </mxCell>
        <mxCell id="VE71ZRhi2tI3rBxWaXgb-32" value="" style="endArrow=none;dashed=1;html=1;rounded=0;" edge="1" parent="1">
          <mxGeometry width="50" height="50" relative="1" as="geometry">
            <mxPoint x="150.72" y="281" as="sourcePoint" />
            <mxPoint x="230.72" y="281" as="targetPoint" />
          </mxGeometry>
        </mxCell>
        <mxCell id="VE71ZRhi2tI3rBxWaXgb-33" value="" style="endArrow=open;dashed=1;html=1;rounded=0;startArrow=none;startFill=0;endFill=0;" edge="1" parent="1">
          <mxGeometry width="50" height="50" relative="1" as="geometry">
            <mxPoint x="150" y="280" as="sourcePoint" />
            <mxPoint x="150" y="240" as="targetPoint" />
          </mxGeometry>
        </mxCell>
        <mxCell id="VE71ZRhi2tI3rBxWaXgb-34" value="L2 = 3 OR L2 &amp;lt; L1 OR L1 = L2" style="text;html=1;align=center;verticalAlign=middle;whiteSpace=wrap;rounded=0;" vertex="1" parent="1">
          <mxGeometry x="109.17" y="290" width="107.5" height="30" as="geometry" />
        </mxCell>
        <mxCell id="VE71ZRhi2tI3rBxWaXgb-37" value="" style="endArrow=none;dashed=1;html=1;rounded=0;startArrow=open;startFill=0;" edge="1" parent="1">
          <mxGeometry width="50" height="50" relative="1" as="geometry">
            <mxPoint x="227" y="200" as="sourcePoint" />
            <mxPoint x="226.67000000000002" y="120" as="targetPoint" />
          </mxGeometry>
        </mxCell>
        <mxCell id="VE71ZRhi2tI3rBxWaXgb-38" value="" style="endArrow=open;dashed=1;html=1;rounded=0;startArrow=none;startFill=0;endFill=0;" edge="1" parent="1">
          <mxGeometry width="50" height="50" relative="1" as="geometry">
            <mxPoint x="244.49" y="200" as="sourcePoint" />
            <mxPoint x="244.16000000000003" y="120" as="targetPoint" />
          </mxGeometry>
        </mxCell>
        <mxCell id="VE71ZRhi2tI3rBxWaXgb-40" value="t надх = -0.5 lnζ" style="text;html=1;align=center;verticalAlign=middle;whiteSpace=wrap;rounded=0;" vertex="1" parent="1">
          <mxGeometry x="24" y="135" width="90" height="20" as="geometry" />
        </mxCell>
        <mxCell id="VE71ZRhi2tI3rBxWaXgb-41" value="&lt;div style=&quot;font-size: 10px;&quot;&gt;&lt;font style=&quot;font-size: 10px;&quot;&gt;L2 - L1 &amp;gt;= 2 AND&lt;/font&gt;&lt;/div&gt;&lt;div style=&quot;font-size: 10px;&quot;&gt;&lt;font style=&quot;font-size: 10px;&quot;&gt;L2[L2 - 1] = item&lt;br&gt;&lt;/font&gt;&lt;/div&gt;" style="text;html=1;align=center;verticalAlign=middle;whiteSpace=wrap;rounded=0;" vertex="1" parent="1">
          <mxGeometry x="121.5" y="142" width="87" height="35" as="geometry" />
        </mxCell>
        <mxCell id="VE71ZRhi2tI3rBxWaXgb-42" value="" style="endArrow=none;dashed=1;html=1;rounded=0;startArrow=open;startFill=0;" edge="1" parent="1">
          <mxGeometry width="50" height="50" relative="1" as="geometry">
            <mxPoint x="226.67000000000002" y="159.38" as="sourcePoint" />
            <mxPoint x="210" y="159" as="targetPoint" />
          </mxGeometry>
        </mxCell>
        <mxCell id="VE71ZRhi2tI3rBxWaXgb-43" value="&lt;div style=&quot;font-size: 10px;&quot;&gt;&lt;font style=&quot;font-size: 10px;&quot;&gt;L1 - L2 &amp;gt;= 2 AND&lt;/font&gt;&lt;/div&gt;&lt;div style=&quot;font-size: 10px;&quot;&gt;&lt;font style=&quot;font-size: 10px;&quot;&gt;L1[L1 - 1] = item&lt;br&gt;&lt;/font&gt;&lt;/div&gt;" style="text;html=1;align=center;verticalAlign=middle;whiteSpace=wrap;rounded=0;" vertex="1" parent="1">
          <mxGeometry x="260" y="142" width="87" height="35" as="geometry" />
        </mxCell>
        <mxCell id="VE71ZRhi2tI3rBxWaXgb-44" value="" style="endArrow=open;dashed=1;html=1;rounded=0;startArrow=none;startFill=0;endFill=0;" edge="1" parent="1">
          <mxGeometry width="50" height="50" relative="1" as="geometry">
            <mxPoint x="260.83000000000004" y="159.69" as="sourcePoint" />
            <mxPoint x="244.16" y="159.31" as="targetPoint" />
          </mxGeometry>
        </mxCell>
        <mxCell id="VE71ZRhi2tI3rBxWaXgb-45" value="K1" style="ellipse;whiteSpace=wrap;html=1;aspect=fixed;" vertex="1" parent="1">
          <mxGeometry x="290" y="79" width="42" height="42" as="geometry" />
        </mxCell>
        <mxCell id="VE71ZRhi2tI3rBxWaXgb-46" value="" style="endArrow=none;html=1;rounded=0;" edge="1" parent="1">
          <mxGeometry width="50" height="50" relative="1" as="geometry">
            <mxPoint x="250" y="99.83" as="sourcePoint" />
            <mxPoint x="290" y="99.83" as="targetPoint" />
          </mxGeometry>
        </mxCell>
        <mxCell id="VE71ZRhi2tI3rBxWaXgb-47" value="K2" style="ellipse;whiteSpace=wrap;html=1;aspect=fixed;" vertex="1" parent="1">
          <mxGeometry x="290" y="200" width="42" height="42" as="geometry" />
        </mxCell>
        <mxCell id="VE71ZRhi2tI3rBxWaXgb-48" value="" style="endArrow=none;html=1;rounded=0;" edge="1" parent="1">
          <mxGeometry width="50" height="50" relative="1" as="geometry">
            <mxPoint x="250" y="220.82999999999998" as="sourcePoint" />
            <mxPoint x="290" y="220.82999999999998" as="targetPoint" />
          </mxGeometry>
        </mxCell>
        <mxCell id="VE71ZRhi2tI3rBxWaXgb-49" value="" style="endArrow=classic;html=1;rounded=0;" edge="1" parent="1">
          <mxGeometry width="50" height="50" relative="1" as="geometry">
            <mxPoint x="332" y="220.83" as="sourcePoint" />
            <mxPoint x="372" y="220.83" as="targetPoint" />
          </mxGeometry>
        </mxCell>
        <mxCell id="VE71ZRhi2tI3rBxWaXgb-50" value="" style="endArrow=classic;html=1;rounded=0;" edge="1" parent="1">
          <mxGeometry width="50" height="50" relative="1" as="geometry">
            <mxPoint x="332" y="99.83000000000001" as="sourcePoint" />
            <mxPoint x="372" y="99.83000000000001" as="targetPoint" />
          </mxGeometry>
        </mxCell>
        <mxCell id="VE71ZRhi2tI3rBxWaXgb-51" value="D1" style="text;html=1;align=center;verticalAlign=middle;whiteSpace=wrap;rounded=0;" vertex="1" parent="1">
          <mxGeometry x="208.5" y="-40" width="24" height="20" as="geometry" />
        </mxCell>
        <mxCell id="VE71ZRhi2tI3rBxWaXgb-52" value="t обр = -0.3 lnζ" style="text;html=1;align=center;verticalAlign=middle;whiteSpace=wrap;rounded=0;" vertex="1" parent="1">
          <mxGeometry x="266" y="250" width="90" height="20" as="geometry" />
        </mxCell>
        <mxCell id="VE71ZRhi2tI3rBxWaXgb-53" value="" style="endArrow=open;dashed=1;html=1;rounded=0;startArrow=none;startFill=0;endFill=0;" edge="1" parent="1">
          <mxGeometry width="50" height="50" relative="1" as="geometry">
            <mxPoint x="220.33" y="100" as="sourcePoint" />
            <mxPoint x="220" y="-20" as="targetPoint" />
          </mxGeometry>
        </mxCell>
        <mxCell id="VE71ZRhi2tI3rBxWaXgb-54" value="t обр = -0.3 lnζ" style="text;html=1;align=center;verticalAlign=middle;whiteSpace=wrap;rounded=0;" vertex="1" parent="1">
          <mxGeometry x="266" y="50" width="90" height="20" as="geometry" />
        </mxCell>
      </root>
    </mxGraphModel>
  </diagram>
  <diagram id="3sAPAKEyrUQ2BkrTnyUm" name="Page-2">
    <mxGraphModel dx="1159" dy="670" grid="1" gridSize="10" guides="1" tooltips="1" connect="1" arrows="1" fold="1" page="1" pageScale="1" pageWidth="850" pageHeight="1100" math="0" shadow="0">
      <root>
        <mxCell id="0" />
        <mxCell id="1" parent="0" />
        <mxCell id="aclQ2gjAOoFb7_L5Tnk2-1" value="" style="endArrow=none;html=1;rounded=0;" edge="1" parent="1">
          <mxGeometry width="50" height="50" relative="1" as="geometry">
            <mxPoint x="19.17" y="510" as="sourcePoint" />
            <mxPoint x="130" y="510" as="targetPoint" />
          </mxGeometry>
        </mxCell>
        <mxCell id="aclQ2gjAOoFb7_L5Tnk2-36" value="Тип1, частота = 0.5 " style="text;html=1;align=center;verticalAlign=middle;whiteSpace=wrap;rounded=0;" vertex="1" parent="1">
          <mxGeometry x="15.17" y="487" width="110" height="20" as="geometry" />
        </mxCell>
        <mxCell id="aclQ2gjAOoFb7_L5Tnk2-51" value="Тип2, частота = 0.1 " style="text;html=1;align=center;verticalAlign=middle;whiteSpace=wrap;rounded=0;" vertex="1" parent="1">
          <mxGeometry x="15.170000000000002" y="537" width="110" height="20" as="geometry" />
        </mxCell>
        <mxCell id="aclQ2gjAOoFb7_L5Tnk2-52" value="" style="endArrow=none;html=1;rounded=0;" edge="1" parent="1">
          <mxGeometry width="50" height="50" relative="1" as="geometry">
            <mxPoint x="19.17" y="560" as="sourcePoint" />
            <mxPoint x="130" y="560" as="targetPoint" />
          </mxGeometry>
        </mxCell>
        <mxCell id="aclQ2gjAOoFb7_L5Tnk2-55" value="Тип3, частота = 0.4 " style="text;html=1;align=center;verticalAlign=middle;whiteSpace=wrap;rounded=0;" vertex="1" parent="1">
          <mxGeometry x="15.17" y="588" width="110" height="20" as="geometry" />
        </mxCell>
        <mxCell id="aclQ2gjAOoFb7_L5Tnk2-56" value="" style="endArrow=none;html=1;rounded=0;" edge="1" parent="1">
          <mxGeometry width="50" height="50" relative="1" as="geometry">
            <mxPoint x="19.17" y="610" as="sourcePoint" />
            <mxPoint x="130" y="610" as="targetPoint" />
          </mxGeometry>
        </mxCell>
        <mxCell id="aclQ2gjAOoFb7_L5Tnk2-57" value="" style="endArrow=none;html=1;rounded=0;" edge="1" parent="1">
          <mxGeometry width="50" height="50" relative="1" as="geometry">
            <mxPoint x="130" y="610" as="sourcePoint" />
            <mxPoint x="129.52" y="510" as="targetPoint" />
          </mxGeometry>
        </mxCell>
        <mxCell id="aclQ2gjAOoFb7_L5Tnk2-58" value="" style="endArrow=classic;html=1;rounded=0;" edge="1" parent="1">
          <mxGeometry width="50" height="50" relative="1" as="geometry">
            <mxPoint x="125.17" y="560" as="sourcePoint" />
            <mxPoint x="180" y="560" as="targetPoint" />
          </mxGeometry>
        </mxCell>
        <mxCell id="aclQ2gjAOoFb7_L5Tnk2-59" value="" style="endArrow=none;html=1;rounded=0;" edge="1" parent="1">
          <mxGeometry width="50" height="50" relative="1" as="geometry">
            <mxPoint x="179.1" y="540" as="sourcePoint" />
            <mxPoint x="209.1" y="540" as="targetPoint" />
          </mxGeometry>
        </mxCell>
        <mxCell id="aclQ2gjAOoFb7_L5Tnk2-60" value="" style="endArrow=none;html=1;rounded=0;" edge="1" parent="1">
          <mxGeometry width="50" height="50" relative="1" as="geometry">
            <mxPoint x="179.1" y="580" as="sourcePoint" />
            <mxPoint x="209.1" y="580" as="targetPoint" />
          </mxGeometry>
        </mxCell>
        <mxCell id="aclQ2gjAOoFb7_L5Tnk2-61" value="" style="endArrow=none;html=1;rounded=0;" edge="1" parent="1">
          <mxGeometry width="50" height="50" relative="1" as="geometry">
            <mxPoint x="209.1" y="540" as="sourcePoint" />
            <mxPoint x="209.1" y="580" as="targetPoint" />
          </mxGeometry>
        </mxCell>
        <mxCell id="aclQ2gjAOoFb7_L5Tnk2-62" value="" style="endArrow=none;html=1;rounded=0;" edge="1" parent="1">
          <mxGeometry width="50" height="50" relative="1" as="geometry">
            <mxPoint x="203.1" y="545" as="sourcePoint" />
            <mxPoint x="203.1" y="575" as="targetPoint" />
          </mxGeometry>
        </mxCell>
        <mxCell id="aclQ2gjAOoFb7_L5Tnk2-63" value="" style="endArrow=none;html=1;rounded=0;" edge="1" parent="1">
          <mxGeometry width="50" height="50" relative="1" as="geometry">
            <mxPoint x="197.1" y="545" as="sourcePoint" />
            <mxPoint x="197.1" y="575" as="targetPoint" />
          </mxGeometry>
        </mxCell>
        <mxCell id="aclQ2gjAOoFb7_L5Tnk2-64" value="" style="endArrow=none;html=1;rounded=0;" edge="1" parent="1">
          <mxGeometry width="50" height="50" relative="1" as="geometry">
            <mxPoint x="185.1" y="545" as="sourcePoint" />
            <mxPoint x="185.1" y="575" as="targetPoint" />
          </mxGeometry>
        </mxCell>
        <mxCell id="aclQ2gjAOoFb7_L5Tnk2-65" value="" style="endArrow=none;html=1;rounded=0;" edge="1" parent="1">
          <mxGeometry width="50" height="50" relative="1" as="geometry">
            <mxPoint x="191.1" y="545" as="sourcePoint" />
            <mxPoint x="191.1" y="575" as="targetPoint" />
          </mxGeometry>
        </mxCell>
        <mxCell id="aclQ2gjAOoFb7_L5Tnk2-66" value="&lt;font style=&quot;font-size: 8px;&quot;&gt;t обр тип1 = -15 lnζ&lt;/font&gt;" style="text;html=1;align=center;verticalAlign=middle;whiteSpace=wrap;rounded=0;" vertex="1" parent="1">
          <mxGeometry x="252.5" y="532" width="77" height="10" as="geometry" />
        </mxCell>
        <mxCell id="aclQ2gjAOoFb7_L5Tnk2-68" value="" style="endArrow=none;html=1;rounded=0;" edge="1" parent="1">
          <mxGeometry width="50" height="50" relative="1" as="geometry">
            <mxPoint x="210.5" y="560" as="sourcePoint" />
            <mxPoint x="250.5" y="560" as="targetPoint" />
          </mxGeometry>
        </mxCell>
        <mxCell id="aclQ2gjAOoFb7_L5Tnk2-69" value="" style="endArrow=none;html=1;rounded=0;" edge="1" parent="1">
          <mxGeometry width="50" height="50" relative="1" as="geometry">
            <mxPoint x="251.48000000000002" y="610" as="sourcePoint" />
            <mxPoint x="251" y="510" as="targetPoint" />
          </mxGeometry>
        </mxCell>
        <mxCell id="aclQ2gjAOoFb7_L5Tnk2-70" value="" style="endArrow=none;html=1;rounded=0;" edge="1" parent="1">
          <mxGeometry width="50" height="50" relative="1" as="geometry">
            <mxPoint x="251" y="510" as="sourcePoint" />
            <mxPoint x="270" y="510" as="targetPoint" />
          </mxGeometry>
        </mxCell>
        <mxCell id="aclQ2gjAOoFb7_L5Tnk2-71" value="" style="endArrow=none;html=1;rounded=0;" edge="1" parent="1">
          <mxGeometry width="50" height="50" relative="1" as="geometry">
            <mxPoint x="251" y="610" as="sourcePoint" />
            <mxPoint x="270" y="610" as="targetPoint" />
          </mxGeometry>
        </mxCell>
        <mxCell id="aclQ2gjAOoFb7_L5Tnk2-72" value="R1" style="ellipse;whiteSpace=wrap;html=1;aspect=fixed;" vertex="1" parent="1">
          <mxGeometry x="270" y="489" width="42" height="42" as="geometry" />
        </mxCell>
        <mxCell id="aclQ2gjAOoFb7_L5Tnk2-73" value="R2" style="ellipse;whiteSpace=wrap;html=1;aspect=fixed;" vertex="1" parent="1">
          <mxGeometry x="270" y="588" width="42" height="42" as="geometry" />
        </mxCell>
        <mxCell id="aclQ2gjAOoFb7_L5Tnk2-74" value="" style="endArrow=none;html=1;rounded=0;" edge="1" parent="1">
          <mxGeometry width="50" height="50" relative="1" as="geometry">
            <mxPoint x="312" y="509.9" as="sourcePoint" />
            <mxPoint x="331" y="509.9" as="targetPoint" />
          </mxGeometry>
        </mxCell>
        <mxCell id="aclQ2gjAOoFb7_L5Tnk2-75" value="" style="endArrow=none;html=1;rounded=0;" edge="1" parent="1">
          <mxGeometry width="50" height="50" relative="1" as="geometry">
            <mxPoint x="312" y="608.9" as="sourcePoint" />
            <mxPoint x="331" y="608.9" as="targetPoint" />
          </mxGeometry>
        </mxCell>
        <mxCell id="aclQ2gjAOoFb7_L5Tnk2-76" value="" style="endArrow=none;html=1;rounded=0;" edge="1" parent="1">
          <mxGeometry width="50" height="50" relative="1" as="geometry">
            <mxPoint x="331.48" y="609" as="sourcePoint" />
            <mxPoint x="331" y="509" as="targetPoint" />
          </mxGeometry>
        </mxCell>
        <mxCell id="aclQ2gjAOoFb7_L5Tnk2-77" value="t надх = -15 lnζ" style="text;html=1;align=center;verticalAlign=middle;whiteSpace=wrap;rounded=0;" vertex="1" parent="1">
          <mxGeometry x="131.5" y="517" width="90" height="20" as="geometry" />
        </mxCell>
        <mxCell id="aclQ2gjAOoFb7_L5Tnk2-79" value="&lt;font style=&quot;font-size: 8px;&quot;&gt;t обр тип2 = -40 lnζ&lt;/font&gt;" style="text;html=1;align=center;verticalAlign=middle;whiteSpace=wrap;rounded=0;" vertex="1" parent="1">
          <mxGeometry x="252.5" y="550" width="77" height="9" as="geometry" />
        </mxCell>
        <mxCell id="aclQ2gjAOoFb7_L5Tnk2-80" value="&lt;font style=&quot;font-size: 8px;&quot;&gt;t обр тип3 = -30 lnζ&lt;/font&gt;" style="text;html=1;align=center;verticalAlign=middle;whiteSpace=wrap;rounded=0;" vertex="1" parent="1">
          <mxGeometry x="252.5" y="570" width="77" height="8" as="geometry" />
        </mxCell>
        <mxCell id="aclQ2gjAOoFb7_L5Tnk2-81" value="" style="endArrow=none;html=1;rounded=0;" edge="1" parent="1">
          <mxGeometry width="50" height="50" relative="1" as="geometry">
            <mxPoint x="332" y="559" as="sourcePoint" />
            <mxPoint x="360" y="559" as="targetPoint" />
          </mxGeometry>
        </mxCell>
        <mxCell id="aclQ2gjAOoFb7_L5Tnk2-82" value="" style="endArrow=none;html=1;rounded=0;" edge="1" parent="1">
          <mxGeometry width="50" height="50" relative="1" as="geometry">
            <mxPoint x="360" y="560" as="sourcePoint" />
            <mxPoint x="360" y="490" as="targetPoint" />
          </mxGeometry>
        </mxCell>
        <mxCell id="aclQ2gjAOoFb7_L5Tnk2-83" value="" style="endArrow=none;html=1;rounded=0;" edge="1" parent="1">
          <mxGeometry width="50" height="50" relative="1" as="geometry">
            <mxPoint x="360" y="490" as="sourcePoint" />
            <mxPoint x="379" y="490" as="targetPoint" />
          </mxGeometry>
        </mxCell>
        <mxCell id="aclQ2gjAOoFb7_L5Tnk2-84" value="" style="triangle;whiteSpace=wrap;html=1;fillColor=#000000;fillStyle=solid;" vertex="1" parent="1">
          <mxGeometry x="379" y="470" width="30" height="40" as="geometry" />
        </mxCell>
        <mxCell id="aclQ2gjAOoFb7_L5Tnk2-85" value="Тип != 1" style="text;html=1;align=center;verticalAlign=middle;whiteSpace=wrap;rounded=0;" vertex="1" parent="1">
          <mxGeometry x="366" y="450" width="52" height="20" as="geometry" />
        </mxCell>
        <mxCell id="aclQ2gjAOoFb7_L5Tnk2-86" value="" style="endArrow=classic;html=1;rounded=0;" edge="1" parent="1">
          <mxGeometry width="50" height="50" relative="1" as="geometry">
            <mxPoint x="410" y="490" as="sourcePoint" />
            <mxPoint x="464.83" y="490" as="targetPoint" />
          </mxGeometry>
        </mxCell>
        <mxCell id="aclQ2gjAOoFb7_L5Tnk2-87" value="" style="endArrow=none;html=1;rounded=0;" edge="1" parent="1">
          <mxGeometry width="50" height="50" relative="1" as="geometry">
            <mxPoint x="463.92999999999995" y="470" as="sourcePoint" />
            <mxPoint x="493.92999999999995" y="470" as="targetPoint" />
          </mxGeometry>
        </mxCell>
        <mxCell id="aclQ2gjAOoFb7_L5Tnk2-88" value="" style="endArrow=none;html=1;rounded=0;" edge="1" parent="1">
          <mxGeometry width="50" height="50" relative="1" as="geometry">
            <mxPoint x="463.92999999999995" y="510" as="sourcePoint" />
            <mxPoint x="493.92999999999995" y="510" as="targetPoint" />
          </mxGeometry>
        </mxCell>
        <mxCell id="aclQ2gjAOoFb7_L5Tnk2-89" value="" style="endArrow=none;html=1;rounded=0;" edge="1" parent="1">
          <mxGeometry width="50" height="50" relative="1" as="geometry">
            <mxPoint x="493.92999999999995" y="470" as="sourcePoint" />
            <mxPoint x="493.92999999999995" y="510" as="targetPoint" />
          </mxGeometry>
        </mxCell>
        <mxCell id="aclQ2gjAOoFb7_L5Tnk2-90" value="" style="endArrow=none;html=1;rounded=0;" edge="1" parent="1">
          <mxGeometry width="50" height="50" relative="1" as="geometry">
            <mxPoint x="487.92999999999995" y="475" as="sourcePoint" />
            <mxPoint x="487.92999999999995" y="505" as="targetPoint" />
          </mxGeometry>
        </mxCell>
        <mxCell id="aclQ2gjAOoFb7_L5Tnk2-91" value="" style="endArrow=none;html=1;rounded=0;" edge="1" parent="1">
          <mxGeometry width="50" height="50" relative="1" as="geometry">
            <mxPoint x="481.92999999999995" y="475" as="sourcePoint" />
            <mxPoint x="481.92999999999995" y="505" as="targetPoint" />
          </mxGeometry>
        </mxCell>
        <mxCell id="aclQ2gjAOoFb7_L5Tnk2-92" value="" style="endArrow=none;html=1;rounded=0;" edge="1" parent="1">
          <mxGeometry width="50" height="50" relative="1" as="geometry">
            <mxPoint x="469.92999999999995" y="475" as="sourcePoint" />
            <mxPoint x="469.92999999999995" y="505" as="targetPoint" />
          </mxGeometry>
        </mxCell>
        <mxCell id="aclQ2gjAOoFb7_L5Tnk2-93" value="" style="endArrow=none;html=1;rounded=0;" edge="1" parent="1">
          <mxGeometry width="50" height="50" relative="1" as="geometry">
            <mxPoint x="475.92999999999995" y="475" as="sourcePoint" />
            <mxPoint x="475.92999999999995" y="505" as="targetPoint" />
          </mxGeometry>
        </mxCell>
        <mxCell id="aclQ2gjAOoFb7_L5Tnk2-95" value="" style="endArrow=none;html=1;rounded=0;" edge="1" parent="1">
          <mxGeometry width="50" height="50" relative="1" as="geometry">
            <mxPoint x="535.48" y="540.5" as="sourcePoint" />
            <mxPoint x="535" y="440.5" as="targetPoint" />
          </mxGeometry>
        </mxCell>
        <mxCell id="aclQ2gjAOoFb7_L5Tnk2-96" value="" style="endArrow=none;html=1;rounded=0;" edge="1" parent="1">
          <mxGeometry width="50" height="50" relative="1" as="geometry">
            <mxPoint x="535" y="440.5" as="sourcePoint" />
            <mxPoint x="554" y="440.5" as="targetPoint" />
          </mxGeometry>
        </mxCell>
        <mxCell id="aclQ2gjAOoFb7_L5Tnk2-97" value="" style="endArrow=none;html=1;rounded=0;" edge="1" parent="1">
          <mxGeometry width="50" height="50" relative="1" as="geometry">
            <mxPoint x="535" y="540.5" as="sourcePoint" />
            <mxPoint x="554" y="540.5" as="targetPoint" />
          </mxGeometry>
        </mxCell>
        <mxCell id="aclQ2gjAOoFb7_L5Tnk2-98" value="A1" style="ellipse;whiteSpace=wrap;html=1;aspect=fixed;" vertex="1" parent="1">
          <mxGeometry x="554" y="419.5" width="42" height="42" as="geometry" />
        </mxCell>
        <mxCell id="aclQ2gjAOoFb7_L5Tnk2-99" value="A3" style="ellipse;whiteSpace=wrap;html=1;aspect=fixed;" vertex="1" parent="1">
          <mxGeometry x="554" y="518.5" width="42" height="42" as="geometry" />
        </mxCell>
        <mxCell id="aclQ2gjAOoFb7_L5Tnk2-107" value="" style="endArrow=none;html=1;rounded=0;" edge="1" parent="1">
          <mxGeometry width="50" height="50" relative="1" as="geometry">
            <mxPoint x="495" y="489" as="sourcePoint" />
            <mxPoint x="535" y="489" as="targetPoint" />
          </mxGeometry>
        </mxCell>
        <mxCell id="aclQ2gjAOoFb7_L5Tnk2-108" value="" style="endArrow=none;html=1;rounded=0;" edge="1" parent="1">
          <mxGeometry width="50" height="50" relative="1" as="geometry">
            <mxPoint x="535" y="489.5" as="sourcePoint" />
            <mxPoint x="554" y="489.5" as="targetPoint" />
          </mxGeometry>
        </mxCell>
        <mxCell id="aclQ2gjAOoFb7_L5Tnk2-109" value="A1" style="ellipse;whiteSpace=wrap;html=1;aspect=fixed;" vertex="1" parent="1">
          <mxGeometry x="554" y="467.5" width="42" height="42" as="geometry" />
        </mxCell>
        <mxCell id="aclQ2gjAOoFb7_L5Tnk2-110" value="" style="endArrow=classic;html=1;rounded=0;" edge="1" parent="1">
          <mxGeometry width="50" height="50" relative="1" as="geometry">
            <mxPoint x="596" y="440.33" as="sourcePoint" />
            <mxPoint x="650.8299999999999" y="440.33" as="targetPoint" />
          </mxGeometry>
        </mxCell>
        <mxCell id="aclQ2gjAOoFb7_L5Tnk2-111" value="" style="endArrow=classic;html=1;rounded=0;" edge="1" parent="1">
          <mxGeometry width="50" height="50" relative="1" as="geometry">
            <mxPoint x="596" y="489.83" as="sourcePoint" />
            <mxPoint x="650.8299999999999" y="489.83" as="targetPoint" />
          </mxGeometry>
        </mxCell>
        <mxCell id="aclQ2gjAOoFb7_L5Tnk2-112" value="" style="endArrow=classic;html=1;rounded=0;" edge="1" parent="1">
          <mxGeometry width="50" height="50" relative="1" as="geometry">
            <mxPoint x="596" y="539.3299999999999" as="sourcePoint" />
            <mxPoint x="650.8299999999999" y="539.3299999999999" as="targetPoint" />
          </mxGeometry>
        </mxCell>
        <mxCell id="aclQ2gjAOoFb7_L5Tnk2-113" value="&lt;font style=&quot;font-size: 8px;&quot;&gt;t обр = unif(3, 8)&lt;br&gt;&lt;/font&gt;" style="text;html=1;align=center;verticalAlign=middle;whiteSpace=wrap;rounded=0;" vertex="1" parent="1">
          <mxGeometry x="590" y="399.5" width="73.5" height="20" as="geometry" />
        </mxCell>
        <mxCell id="aclQ2gjAOoFb7_L5Tnk2-115" value="" style="endArrow=none;html=1;rounded=0;" edge="1" parent="1">
          <mxGeometry width="50" height="50" relative="1" as="geometry">
            <mxPoint x="360" y="630" as="sourcePoint" />
            <mxPoint x="360" y="560" as="targetPoint" />
          </mxGeometry>
        </mxCell>
        <mxCell id="aclQ2gjAOoFb7_L5Tnk2-117" value="" style="endArrow=none;html=1;rounded=0;" edge="1" parent="1">
          <mxGeometry width="50" height="50" relative="1" as="geometry">
            <mxPoint x="360" y="629" as="sourcePoint" />
            <mxPoint x="379" y="629" as="targetPoint" />
          </mxGeometry>
        </mxCell>
        <mxCell id="aclQ2gjAOoFb7_L5Tnk2-118" value="" style="triangle;whiteSpace=wrap;html=1;fillColor=#000000;fillStyle=solid;" vertex="1" parent="1">
          <mxGeometry x="379" y="609" width="30" height="40" as="geometry" />
        </mxCell>
        <mxCell id="aclQ2gjAOoFb7_L5Tnk2-119" value="Тип == 1" style="text;html=1;align=center;verticalAlign=middle;whiteSpace=wrap;rounded=0;" vertex="1" parent="1">
          <mxGeometry x="366" y="588" width="52" height="20" as="geometry" />
        </mxCell>
        <mxCell id="aclQ2gjAOoFb7_L5Tnk2-120" value="" style="endArrow=classic;html=1;rounded=0;" edge="1" parent="1">
          <mxGeometry width="50" height="50" relative="1" as="geometry">
            <mxPoint x="409" y="628.67" as="sourcePoint" />
            <mxPoint x="463.83" y="628.67" as="targetPoint" />
          </mxGeometry>
        </mxCell>
        <mxCell id="aclQ2gjAOoFb7_L5Tnk2-121" value="" style="endArrow=none;html=1;rounded=0;" edge="1" parent="1">
          <mxGeometry width="50" height="50" relative="1" as="geometry">
            <mxPoint x="559.88" y="608.77" as="sourcePoint" />
            <mxPoint x="589.88" y="608.77" as="targetPoint" />
          </mxGeometry>
        </mxCell>
        <mxCell id="aclQ2gjAOoFb7_L5Tnk2-122" value="" style="endArrow=none;html=1;rounded=0;" edge="1" parent="1">
          <mxGeometry width="50" height="50" relative="1" as="geometry">
            <mxPoint x="559.88" y="648.77" as="sourcePoint" />
            <mxPoint x="589.88" y="648.77" as="targetPoint" />
          </mxGeometry>
        </mxCell>
        <mxCell id="aclQ2gjAOoFb7_L5Tnk2-123" value="" style="endArrow=none;html=1;rounded=0;" edge="1" parent="1">
          <mxGeometry width="50" height="50" relative="1" as="geometry">
            <mxPoint x="589.88" y="608.77" as="sourcePoint" />
            <mxPoint x="589.88" y="648.77" as="targetPoint" />
          </mxGeometry>
        </mxCell>
        <mxCell id="aclQ2gjAOoFb7_L5Tnk2-124" value="" style="endArrow=none;html=1;rounded=0;" edge="1" parent="1">
          <mxGeometry width="50" height="50" relative="1" as="geometry">
            <mxPoint x="583.88" y="613.77" as="sourcePoint" />
            <mxPoint x="583.88" y="643.77" as="targetPoint" />
          </mxGeometry>
        </mxCell>
        <mxCell id="aclQ2gjAOoFb7_L5Tnk2-125" value="" style="endArrow=none;html=1;rounded=0;" edge="1" parent="1">
          <mxGeometry width="50" height="50" relative="1" as="geometry">
            <mxPoint x="577.88" y="613.77" as="sourcePoint" />
            <mxPoint x="577.88" y="643.77" as="targetPoint" />
          </mxGeometry>
        </mxCell>
        <mxCell id="aclQ2gjAOoFb7_L5Tnk2-126" value="" style="endArrow=none;html=1;rounded=0;" edge="1" parent="1">
          <mxGeometry width="50" height="50" relative="1" as="geometry">
            <mxPoint x="565.88" y="613.77" as="sourcePoint" />
            <mxPoint x="565.88" y="643.77" as="targetPoint" />
          </mxGeometry>
        </mxCell>
        <mxCell id="aclQ2gjAOoFb7_L5Tnk2-127" value="" style="endArrow=none;html=1;rounded=0;" edge="1" parent="1">
          <mxGeometry width="50" height="50" relative="1" as="geometry">
            <mxPoint x="571.88" y="613.77" as="sourcePoint" />
            <mxPoint x="571.88" y="643.77" as="targetPoint" />
          </mxGeometry>
        </mxCell>
        <mxCell id="aclQ2gjAOoFb7_L5Tnk2-128" value="PF1" style="ellipse;whiteSpace=wrap;html=1;aspect=fixed;" vertex="1" parent="1">
          <mxGeometry x="463" y="608" width="42" height="42" as="geometry" />
        </mxCell>
        <mxCell id="aclQ2gjAOoFb7_L5Tnk2-129" value="" style="endArrow=classic;html=1;rounded=0;" edge="1" parent="1">
          <mxGeometry width="50" height="50" relative="1" as="geometry">
            <mxPoint x="505" y="628.88" as="sourcePoint" />
            <mxPoint x="559.8299999999999" y="628.88" as="targetPoint" />
          </mxGeometry>
        </mxCell>
        <mxCell id="aclQ2gjAOoFb7_L5Tnk2-130" value="" style="endArrow=none;html=1;rounded=0;" edge="1" parent="1">
          <mxGeometry width="50" height="50" relative="1" as="geometry">
            <mxPoint x="590" y="630" as="sourcePoint" />
            <mxPoint x="630" y="630" as="targetPoint" />
          </mxGeometry>
        </mxCell>
        <mxCell id="aclQ2gjAOoFb7_L5Tnk2-131" value="LR1" style="ellipse;whiteSpace=wrap;html=1;aspect=fixed;" vertex="1" parent="1">
          <mxGeometry x="630" y="609" width="42" height="42" as="geometry" />
        </mxCell>
        <mxCell id="aclQ2gjAOoFb7_L5Tnk2-132" value="" style="endArrow=classic;html=1;rounded=0;" edge="1" parent="1">
          <mxGeometry width="50" height="50" relative="1" as="geometry">
            <mxPoint x="672" y="630" as="sourcePoint" />
            <mxPoint x="726.8299999999999" y="630" as="targetPoint" />
          </mxGeometry>
        </mxCell>
        <mxCell id="aclQ2gjAOoFb7_L5Tnk2-134" value="" style="endArrow=none;html=1;rounded=0;" edge="1" parent="1">
          <mxGeometry width="50" height="50" relative="1" as="geometry">
            <mxPoint x="794.48" y="681.5" as="sourcePoint" />
            <mxPoint x="794" y="581.5" as="targetPoint" />
          </mxGeometry>
        </mxCell>
        <mxCell id="aclQ2gjAOoFb7_L5Tnk2-135" value="" style="endArrow=none;html=1;rounded=0;" edge="1" parent="1">
          <mxGeometry width="50" height="50" relative="1" as="geometry">
            <mxPoint x="794" y="581.5" as="sourcePoint" />
            <mxPoint x="813" y="581.5" as="targetPoint" />
          </mxGeometry>
        </mxCell>
        <mxCell id="aclQ2gjAOoFb7_L5Tnk2-136" value="" style="endArrow=none;html=1;rounded=0;" edge="1" parent="1">
          <mxGeometry width="50" height="50" relative="1" as="geometry">
            <mxPoint x="794" y="681.5" as="sourcePoint" />
            <mxPoint x="813" y="681.5" as="targetPoint" />
          </mxGeometry>
        </mxCell>
        <mxCell id="aclQ2gjAOoFb7_L5Tnk2-137" value="L1" style="ellipse;whiteSpace=wrap;html=1;aspect=fixed;" vertex="1" parent="1">
          <mxGeometry x="813" y="560.5" width="42" height="42" as="geometry" />
        </mxCell>
        <mxCell id="aclQ2gjAOoFb7_L5Tnk2-138" value="L2" style="ellipse;whiteSpace=wrap;html=1;aspect=fixed;" vertex="1" parent="1">
          <mxGeometry x="813" y="659.5" width="42" height="42" as="geometry" />
        </mxCell>
        <mxCell id="aclQ2gjAOoFb7_L5Tnk2-139" value="" style="endArrow=none;html=1;rounded=0;" edge="1" parent="1">
          <mxGeometry width="50" height="50" relative="1" as="geometry">
            <mxPoint x="855" y="581.4" as="sourcePoint" />
            <mxPoint x="874" y="581.4" as="targetPoint" />
          </mxGeometry>
        </mxCell>
        <mxCell id="aclQ2gjAOoFb7_L5Tnk2-140" value="" style="endArrow=none;html=1;rounded=0;" edge="1" parent="1">
          <mxGeometry width="50" height="50" relative="1" as="geometry">
            <mxPoint x="855" y="680.4" as="sourcePoint" />
            <mxPoint x="874" y="680.4" as="targetPoint" />
          </mxGeometry>
        </mxCell>
        <mxCell id="aclQ2gjAOoFb7_L5Tnk2-141" value="" style="endArrow=none;html=1;rounded=0;" edge="1" parent="1">
          <mxGeometry width="50" height="50" relative="1" as="geometry">
            <mxPoint x="874.48" y="680.5" as="sourcePoint" />
            <mxPoint x="874" y="580.5" as="targetPoint" />
          </mxGeometry>
        </mxCell>
        <mxCell id="aclQ2gjAOoFb7_L5Tnk2-144" value="" style="endArrow=none;html=1;rounded=0;" edge="1" parent="1">
          <mxGeometry width="50" height="50" relative="1" as="geometry">
            <mxPoint x="723" y="610.72" as="sourcePoint" />
            <mxPoint x="753" y="610.72" as="targetPoint" />
          </mxGeometry>
        </mxCell>
        <mxCell id="aclQ2gjAOoFb7_L5Tnk2-145" value="" style="endArrow=none;html=1;rounded=0;" edge="1" parent="1">
          <mxGeometry width="50" height="50" relative="1" as="geometry">
            <mxPoint x="723" y="650.72" as="sourcePoint" />
            <mxPoint x="753" y="650.72" as="targetPoint" />
          </mxGeometry>
        </mxCell>
        <mxCell id="aclQ2gjAOoFb7_L5Tnk2-146" value="" style="endArrow=none;html=1;rounded=0;" edge="1" parent="1">
          <mxGeometry width="50" height="50" relative="1" as="geometry">
            <mxPoint x="753" y="610.72" as="sourcePoint" />
            <mxPoint x="753" y="650.72" as="targetPoint" />
          </mxGeometry>
        </mxCell>
        <mxCell id="aclQ2gjAOoFb7_L5Tnk2-147" value="" style="endArrow=none;html=1;rounded=0;" edge="1" parent="1">
          <mxGeometry width="50" height="50" relative="1" as="geometry">
            <mxPoint x="747" y="615.72" as="sourcePoint" />
            <mxPoint x="747" y="645.72" as="targetPoint" />
          </mxGeometry>
        </mxCell>
        <mxCell id="aclQ2gjAOoFb7_L5Tnk2-148" value="" style="endArrow=none;html=1;rounded=0;" edge="1" parent="1">
          <mxGeometry width="50" height="50" relative="1" as="geometry">
            <mxPoint x="741" y="615.72" as="sourcePoint" />
            <mxPoint x="741" y="645.72" as="targetPoint" />
          </mxGeometry>
        </mxCell>
        <mxCell id="aclQ2gjAOoFb7_L5Tnk2-149" value="" style="endArrow=none;html=1;rounded=0;" edge="1" parent="1">
          <mxGeometry width="50" height="50" relative="1" as="geometry">
            <mxPoint x="729" y="615.72" as="sourcePoint" />
            <mxPoint x="729" y="645.72" as="targetPoint" />
          </mxGeometry>
        </mxCell>
        <mxCell id="aclQ2gjAOoFb7_L5Tnk2-150" value="" style="endArrow=none;html=1;rounded=0;" edge="1" parent="1">
          <mxGeometry width="50" height="50" relative="1" as="geometry">
            <mxPoint x="735" y="615.72" as="sourcePoint" />
            <mxPoint x="735" y="645.72" as="targetPoint" />
          </mxGeometry>
        </mxCell>
        <mxCell id="aclQ2gjAOoFb7_L5Tnk2-151" value="" style="endArrow=none;html=1;rounded=0;" edge="1" parent="1">
          <mxGeometry width="50" height="50" relative="1" as="geometry">
            <mxPoint x="753.12" y="631.95" as="sourcePoint" />
            <mxPoint x="793.12" y="631.95" as="targetPoint" />
          </mxGeometry>
        </mxCell>
        <mxCell id="aclQ2gjAOoFb7_L5Tnk2-152" value="&lt;font style=&quot;font-size: 8px;&quot;&gt;t обр = erlang(4.5, 3)&lt;br&gt;&lt;/font&gt;" style="text;html=1;align=center;verticalAlign=middle;whiteSpace=wrap;rounded=0;" vertex="1" parent="1">
          <mxGeometry x="608.13" y="583.5" width="85.75" height="20" as="geometry" />
        </mxCell>
        <mxCell id="aclQ2gjAOoFb7_L5Tnk2-153" value="&lt;font style=&quot;font-size: 8px;&quot;&gt;t обр = unif(2, 5)&lt;br&gt;&lt;/font&gt;" style="text;html=1;align=center;verticalAlign=middle;whiteSpace=wrap;rounded=0;" vertex="1" parent="1">
          <mxGeometry x="457.25" y="593.5" width="73.5" height="20" as="geometry" />
        </mxCell>
        <mxCell id="aclQ2gjAOoFb7_L5Tnk2-154" value="&lt;font style=&quot;font-size: 8px;&quot;&gt;t обр = erlang(4, 2)&lt;br&gt;&lt;/font&gt;" style="text;html=1;align=center;verticalAlign=middle;whiteSpace=wrap;rounded=0;" vertex="1" parent="1">
          <mxGeometry x="796.28" y="620" width="75.44" height="20" as="geometry" />
        </mxCell>
        <mxCell id="aclQ2gjAOoFb7_L5Tnk2-155" value="&lt;font style=&quot;font-size: 8px;&quot;&gt;t обр = unif(3, 8)&lt;br&gt;&lt;/font&gt;" style="text;html=1;align=center;verticalAlign=middle;whiteSpace=wrap;rounded=0;" vertex="1" parent="1">
          <mxGeometry x="596" y="461.5" width="74" height="20" as="geometry" />
        </mxCell>
        <mxCell id="aclQ2gjAOoFb7_L5Tnk2-156" value="&lt;font style=&quot;font-size: 8px;&quot;&gt;t обр = unif(3, 8)&lt;br&gt;&lt;/font&gt;" style="text;html=1;align=center;verticalAlign=middle;whiteSpace=wrap;rounded=0;" vertex="1" parent="1">
          <mxGeometry x="596" y="511" width="73.5" height="20" as="geometry" />
        </mxCell>
        <mxCell id="aclQ2gjAOoFb7_L5Tnk2-157" value="" style="endArrow=none;html=1;rounded=0;" edge="1" parent="1">
          <mxGeometry width="50" height="50" relative="1" as="geometry">
            <mxPoint x="874" y="631" as="sourcePoint" />
            <mxPoint x="914" y="631" as="targetPoint" />
          </mxGeometry>
        </mxCell>
        <mxCell id="aclQ2gjAOoFb7_L5Tnk2-158" value="" style="endArrow=none;html=1;rounded=0;" edge="1" parent="1">
          <mxGeometry width="50" height="50" relative="1" as="geometry">
            <mxPoint x="914" y="632" as="sourcePoint" />
            <mxPoint x="914" y="592.5" as="targetPoint" />
          </mxGeometry>
        </mxCell>
        <mxCell id="aclQ2gjAOoFb7_L5Tnk2-159" value="" style="triangle;whiteSpace=wrap;html=1;fillColor=#000000;fillStyle=solid;" vertex="1" parent="1">
          <mxGeometry x="934" y="572.5" width="30" height="40" as="geometry" />
        </mxCell>
        <mxCell id="aclQ2gjAOoFb7_L5Tnk2-160" value="Тип != 2" style="text;html=1;align=center;verticalAlign=middle;whiteSpace=wrap;rounded=0;" vertex="1" parent="1">
          <mxGeometry x="917" y="544.5" width="52" height="20" as="geometry" />
        </mxCell>
        <mxCell id="aclQ2gjAOoFb7_L5Tnk2-161" value="" style="endArrow=none;html=1;rounded=0;" edge="1" parent="1">
          <mxGeometry width="50" height="50" relative="1" as="geometry">
            <mxPoint x="914" y="670.5" as="sourcePoint" />
            <mxPoint x="914" y="630" as="targetPoint" />
          </mxGeometry>
        </mxCell>
        <mxCell id="aclQ2gjAOoFb7_L5Tnk2-162" value="" style="triangle;whiteSpace=wrap;html=1;fillColor=#000000;fillStyle=solid;" vertex="1" parent="1">
          <mxGeometry x="933" y="651" width="30" height="40" as="geometry" />
        </mxCell>
        <mxCell id="aclQ2gjAOoFb7_L5Tnk2-163" value="Тип != 3" style="text;html=1;align=center;verticalAlign=middle;whiteSpace=wrap;rounded=0;" vertex="1" parent="1">
          <mxGeometry x="917" y="629" width="52" height="20" as="geometry" />
        </mxCell>
        <mxCell id="aclQ2gjAOoFb7_L5Tnk2-164" value="" style="endArrow=none;html=1;rounded=0;" edge="1" parent="1">
          <mxGeometry width="50" height="50" relative="1" as="geometry">
            <mxPoint x="914" y="592.38" as="sourcePoint" />
            <mxPoint x="933" y="592.38" as="targetPoint" />
          </mxGeometry>
        </mxCell>
        <mxCell id="aclQ2gjAOoFb7_L5Tnk2-166" value="" style="endArrow=classic;html=1;rounded=0;" edge="1" parent="1">
          <mxGeometry width="50" height="50" relative="1" as="geometry">
            <mxPoint x="964" y="592.26" as="sourcePoint" />
            <mxPoint x="1018.8299999999999" y="592.26" as="targetPoint" />
          </mxGeometry>
        </mxCell>
        <mxCell id="aclQ2gjAOoFb7_L5Tnk2-167" value="" style="endArrow=none;html=1;rounded=0;" edge="1" parent="1">
          <mxGeometry width="50" height="50" relative="1" as="geometry">
            <mxPoint x="914" y="670.5" as="sourcePoint" />
            <mxPoint x="933" y="670.5" as="targetPoint" />
          </mxGeometry>
        </mxCell>
        <mxCell id="aclQ2gjAOoFb7_L5Tnk2-168" value="" style="endArrow=none;html=1;rounded=0;" edge="1" parent="1">
          <mxGeometry width="50" height="50" relative="1" as="geometry">
            <mxPoint x="963" y="670.9" as="sourcePoint" />
            <mxPoint x="982" y="670.9" as="targetPoint" />
          </mxGeometry>
        </mxCell>
        <mxCell id="aclQ2gjAOoFb7_L5Tnk2-169" value="" style="endArrow=none;html=1;rounded=0;" edge="1" parent="1">
          <mxGeometry width="50" height="50" relative="1" as="geometry">
            <mxPoint x="982" y="720" as="sourcePoint" />
            <mxPoint x="982" y="671" as="targetPoint" />
          </mxGeometry>
        </mxCell>
        <mxCell id="aclQ2gjAOoFb7_L5Tnk2-172" value="" style="endArrow=none;html=1;rounded=0;" edge="1" parent="1">
          <mxGeometry width="50" height="50" relative="1" as="geometry">
            <mxPoint x="160" y="720" as="sourcePoint" />
            <mxPoint x="160" y="570" as="targetPoint" />
          </mxGeometry>
        </mxCell>
        <mxCell id="aclQ2gjAOoFb7_L5Tnk2-174" value="" style="endArrow=classic;html=1;rounded=0;" edge="1" parent="1">
          <mxGeometry width="50" height="50" relative="1" as="geometry">
            <mxPoint x="160.00000000000003" y="570" as="sourcePoint" />
            <mxPoint x="178.16" y="570.07" as="targetPoint" />
          </mxGeometry>
        </mxCell>
        <mxCell id="aclQ2gjAOoFb7_L5Tnk2-175" value="PB1" style="ellipse;whiteSpace=wrap;html=1;aspect=fixed;" vertex="1" parent="1">
          <mxGeometry x="567.13" y="699" width="42" height="42" as="geometry" />
        </mxCell>
        <mxCell id="aclQ2gjAOoFb7_L5Tnk2-176" value="" style="endArrow=none;html=1;rounded=0;" edge="1" parent="1">
          <mxGeometry width="50" height="50" relative="1" as="geometry">
            <mxPoint x="610" y="720" as="sourcePoint" />
            <mxPoint x="982.55" y="720.3599999999999" as="targetPoint" />
          </mxGeometry>
        </mxCell>
        <mxCell id="aclQ2gjAOoFb7_L5Tnk2-177" value="" style="endArrow=none;html=1;rounded=0;" edge="1" parent="1">
          <mxGeometry width="50" height="50" relative="1" as="geometry">
            <mxPoint x="160" y="720" as="sourcePoint" />
            <mxPoint x="567.1299999999999" y="720.18" as="targetPoint" />
          </mxGeometry>
        </mxCell>
      </root>
    </mxGraphModel>
  </diagram>
</mxfile>
